<svg id="Layer_1" data-name="Layer 1" xmlns="http://www.w3.org/2000/svg" viewBox="0 0 256.34155 443.33021"><defs><style>.cls-1{fill:none;stroke:#fff;stroke-miterlimit:10;stroke-width:16px;}.cls-2{fill:#232428;}.cls-3{fill:#485ed1;}.cls-4{fill:#fff;}</style></defs><path class="cls-1" d="M130.06966,436.45973,13.27054,339.84316S114.48074,221.644,130.07152,78.13394c15.34817,143.417,116.79725,261.70922,116.79725,261.70922Z" transform="translate(-1.90132 -3.51186)"/><path class="cls-2" d="M130.06966,437.56134,13.27054,340.94476s99.8161-115.79364,116.801-261.70922c16.44019,145.31579,116.79725,261.70922,116.79725,261.70922Z" transform="translate(-1.90132 -3.51186)"/><path class="cls-3" d="M130.07079,436.45973l-98.66973-81.619s70.581-46.87131,98.67346-120.09325c27.502,71.866,98.66487,120.09325,98.66487,120.09325Z" transform="translate(-1.90132 -3.51186)"/><path class="cls-4" d="M130.07566,437.56134,73.52617,390.78343s46.76139-29.25348,56.54835-58.56971c9.87449,28.63825,56.54836,58.57159,56.54836,58.57159Z" transform="translate(-1.90132 -3.51186)"/></svg>